<svg xmlns="http://www.w3.org/2000/svg" version="1.1" xmlns:xlink="http://www.w3.org/1999/xlink" xmlns:svgjs="http://svgjs.dev/svgjs" width="1440" height="560" preserveAspectRatio="none" viewBox="0 0 1440 560">
    <g mask="url(&quot;#SvgjsMask1038&quot;)" fill="none">
        <rect width="1440" height="560" x="0" y="0" fill="rgba(0, 122, 39, 1)"></rect>
        <path d="M70 0C106.07 6.51 104.92 25.28 140 25.28C176.32 25.28 175.41 6.75 212.8 0C245.41 -5.89 246.4 0 280 0C350 0 350 0 420 0C455 0 465.63 -19.29 490 0C535.63 36.12 509.32 81.27 560 110.83C614.32 142.52 654.7 151.64 700 122.5C740.85 96.22 694.47 33.11 732.31 0C764.47 -28.14 786.15 0 840 0C910 0 910 0 980 0C1050 0 1050 0 1120 0C1190 0 1190 0 1260 0C1316.81 0 1321.22 -10.32 1373.62 0C1391.22 3.47 1382.88 27.58 1400 27.58C1449.6 27.58 1453.13 10.62 1507.06 0C1523.13 -3.17 1531.76 -8.24 1540 0C1548.23 8.23 1543.17 16.87 1540 32.94C1529.38 86.87 1512.42 91 1512.42 140C1512.42 155.77 1536.8 146.21 1540 162.47C1550.59 216.21 1540 221.24 1540 280C1540 343.47 1547.98 347.64 1540 406.93C1538.56 417.64 1521.15 412 1521.15 420C1521.15 430.78 1538.01 429.72 1540 444.5C1547.44 499.72 1571.64 533.89 1540 560C1501.64 591.64 1470 560 1400 560C1330 560 1330 560 1260 560C1190 560 1190 560 1120 560C1050 560 1050 560 980 560C910 560 910 560 840 560C770 560 770 560 700 560C630 560 630 560 560 560C531.57 560 525.7 573.84 503.13 560C455.7 530.93 461.91 474.19 420 474.19C377.44 474.19 382.58 530.34 334.19 560C312.58 573.24 307.1 560 280 560C210 560 210 560 140 560C70 560 35 595 0 560C-35 525 0 490 0 420C0 350 0 350 0 280C0 210 0 210 0 140C0 70 -23.33 46.67 0 0C11.67 -23.33 36.07 -6.13 70 0" stroke="rgba(229, 255, 238, 1)" stroke-width="2"></path>
        <path d="M560 165C540.51 165 519.75 226.24 519.75 280C519.75 307.42 540.29 327.35 560 327.35C579.14 327.35 597.44 307.03 597.44 280C597.44 225.85 579.35 165 560 165" stroke="rgba(229, 255, 238, 1)" stroke-width="2"></path>
        <path d="M840 237.5C825.06 237.5 810.25 259.45 810.25 280C810.25 298.2 825.07 315 840 315C855.01 315 870.13 298.21 870.13 280C870.13 259.46 855 237.5 840 237.5" stroke="rgba(229, 255, 238, 1)" stroke-width="2"></path>
        <path d="M1400 255.94C1386.88 255.94 1371.48 267.5 1371.48 280C1371.48 293.28 1387.03 307.5 1400 307.5C1411.03 307.5 1419.49 293.44 1419.49 280C1419.49 267.66 1410.89 255.94 1400 255.94" stroke="rgba(229, 255, 238, 1)" stroke-width="2"></path>
        <path d="M700 393.08C682.81 393.08 665 403.55 665 420C665 443.93 683.07 473.85 700 473.85C716.48 473.85 731.82 444.24 731.82 420C731.82 403.85 716.22 393.08 700 393.08" stroke="rgba(0, 149, 48, 1)" stroke-width="2"></path>
        <path d="M980 404C968.22 404 961.02 411.06 961.02 420C961.02 430.97 966.24 443.83 980 443.83C1031.73 443.83 1092 430.02 1092 420C1092 410.1 1033.71 404 980 404" stroke="rgba(0, 149, 48, 1)" stroke-width="2"></path>
        <path d="M0 48C42.52 27.92 69.48 69.61 140 73.89C209.48 78.11 220.15 45.57 280 65C321.97 78.62 307.37 107.52 343.64 140C377.37 170.22 389.29 157.92 420 190.4C455.47 227.92 476 234.55 476 280C476 329.13 455.31 336.46 420 379.56C397.96 406.46 388.08 396.7 361.29 420C318.08 457.57 329.88 483.99 280 501.29C219.23 522.37 197.97 477.46 140 496.77C109.82 506.82 132.6 546.95 103.7 560C62.6 578.56 27.5 584.35 0 560C-24.35 538.45 -19.41 503.32 0 468.2C19.27 433.32 66.21 456.87 77.37 420C94.69 362.77 80.45 344.24 56.95 280C41.77 238.5 16.28 248.52 0 208.51C-12.2 178.52 0 174.25 0 140C0 94 -27.48 60.98 0 48" stroke="rgba(0, 149, 48, 1)" stroke-width="2"></path>
        <path d="M785.56 140C761.85 80.06 752.52 46.92 770.77 0C779.74 -23.08 805.38 0 840 0C910 0 910 0 980 0C1050 0 1050 0 1120 0C1190 0 1190 0 1260 0C1291.45 0 1297.66 -14.53 1322.9 0C1367.66 25.77 1361.07 40.68 1400 80.61C1429.31 110.68 1459.39 110.08 1459.39 140C1459.39 170.4 1431.41 172.46 1400 201.25C1355.05 242.46 1306.67 239.08 1306.67 280C1306.67 323.45 1353.03 325.32 1400 370C1426.62 395.32 1429.9 392.29 1453.85 420C1499.9 473.29 1504.05 473.58 1540 532C1547.12 543.58 1551.67 557.67 1540 560C1481.67 571.67 1470 560 1400 560C1389.5 560 1387.08 566.25 1379 560C1317.08 512.16 1317.53 507.75 1260 451.82C1245.53 437.75 1242.2 438.65 1235 420C1209.04 352.74 1209.81 351.03 1193.68 280C1178.02 211.03 1196.62 201.76 1171.43 140C1159.78 111.44 1145.32 99.35 1120 99.35C1095.83 99.35 1080.03 112.11 1072.45 140C1055.47 202.43 1096.04 221.76 1070.88 280C1049.82 328.76 1022.43 354 980 354C944.2 354 944.84 318.88 914.43 280C874.84 229.38 882.87 221.58 840 175C818.44 151.58 796.46 167.56 785.56 140" stroke="rgba(0, 149, 48, 1)" stroke-width="2"></path>
        <path d="M638.14 280C638.14 237.64 668.31 191.33 700 191.33C732.49 191.33 766.5 237.82 766.5 280C766.5 316.26 732.63 348.21 700 348.21C668.45 348.21 638.14 316.08 638.14 280" stroke="rgba(0, 149, 48, 1)" stroke-width="2"></path>
        <path d="M1463.8 280C1463.8 242.11 1517.56 205.68 1540 205.68C1555.66 205.68 1540 242.84 1540 280C1540 320.13 1556.02 360.27 1540 360.27C1517.92 360.27 1463.8 319.4 1463.8 280" stroke="rgba(229, 255, 238, 1)" stroke-width="2"></path>
        <path d="M475.15 420C475.15 391.93 520.38 378.82 560 378.82C586.14 378.82 606.67 395.19 606.67 420C606.67 459.53 589.5 507.5 560 507.5C523.74 507.5 475.15 456.27 475.15 420" stroke="rgba(0, 149, 48, 1)" stroke-width="2"></path>
        <path d="M784.85 420C806.73 388.81 811.68 366.47 840 366.47C870.1 366.47 874.12 390.1 901.69 420C944.12 466.01 929.02 502.64 980 518.3C1038.18 536.18 1056.98 475.31 1120 487.08C1168.65 496.16 1203.33 539.2 1203.33 560C1203.33 575.66 1161.66 560 1120 560C1050 560 1050 560 980 560C910 560 910 560 840 560C772.12 560 716.83 591.96 704.24 560C689.26 521.96 738.85 485.57 784.85 420" stroke="rgba(0, 149, 48, 1)" stroke-width="2"></path>
        <path d="M25.45 140C30.31 107.73 83.19 122.5 140 122.5C173.63 122.5 181.42 119.1 206.32 140C251.42 177.85 230.05 211.86 280 240C336.89 272.06 354.57 243.21 420 260.4C430.69 263.21 432.25 270.06 432.25 280C432.25 290.75 431.32 297.99 420 301.78C355.2 323.45 350.11 316.89 280 330.91C210.11 344.89 192.13 373.99 140 357.78C110.26 348.53 135.04 315.68 116.27 280C77.76 206.79 18.45 186.48 25.45 140" stroke="rgba(0, 149, 48, 1)" stroke-width="2"></path>
        <path d="M840 90.32C813.01 54.02 809.23 34.15 809.23 0C809.23 -11.01 824.62 0 840 0C890 0 899.76 -17.88 940 0C969.76 13.23 964.26 29.05 980 62.22C997.47 99.05 1000.97 99.74 1006.42 140C1015.71 208.63 1019.86 215.5 1009.47 280C1006.65 297.5 993.76 304 980 304C968.39 304 964.69 294.67 958.73 280C931.36 212.67 950.39 199.21 913.33 140C891.03 104.37 865.06 124.02 840 90.32" stroke="rgba(0, 149, 48, 1)" stroke-width="2"></path>
        <path d="M1120 42.9C1074.96 14.41 1021.48 11.19 1021.48 0C1021.48 -10.26 1070.74 0 1120 0C1190 0 1190 0 1260 0C1266.09 0 1267.85 -4.13 1272.17 0C1337.85 62.69 1336.02 66.89 1400 133.64C1403.11 136.89 1406.36 136.8 1406.36 140C1406.36 143.26 1404.16 144.72 1400 146.56C1330.98 177.03 1314.52 206.9 1260 204.62C1235.95 203.62 1263.8 164.19 1242.86 140C1193.8 83.33 1185.65 84.41 1120 42.9" stroke="rgba(229, 255, 238, 1)" stroke-width="2"></path>
        <path d="M678.84 280C678.84 265.51 689.16 249.67 700 249.67C711.11 249.67 722.75 265.57 722.75 280C722.75 292.4 711.16 303.33 700 303.33C689.21 303.33 678.84 292.34 678.84 280" stroke="rgba(0, 149, 48, 1)" stroke-width="2"></path>
        <path d="M1508.1 280C1508.1 264.14 1530.61 248.89 1540 248.89C1546.56 248.89 1540 264.44 1540 280C1540 296.8 1546.7 313.6 1540 313.6C1530.75 313.6 1508.1 296.49 1508.1 280" stroke="rgba(229, 255, 238, 1)" stroke-width="2"></path>
        <path d="M837.88 420C838.18 418.56 838.91 417.94 840 417.94C841.16 417.94 841.81 418.54 842.37 420C869.03 489.57 895.31 508.7 894.44 560C894.12 578.7 867.22 560 840 560C825.15 560 810.48 572.06 810.3 560C809.42 502.06 823.33 489.59 837.88 420" stroke="rgba(0, 149, 48, 1)" stroke-width="2"></path>
        <path d="M0 525.57C11.69 525.57 38.89 550.16 38.89 560C38.89 567.37 10.31 569.13 0 560C-9.13 551.92 -7.75 525.57 0 525.57" stroke="rgba(0, 149, 48, 1)" stroke-width="2"></path>
    </g>
    <defs>
        <mask id="SvgjsMask1038">
            <rect width="1440" height="560" fill="#ffffff"></rect>
        </mask>
    </defs>
</svg>