<svg xmlns="http://www.w3.org/2000/svg" version="1.1" xmlns:xlink="http://www.w3.org/1999/xlink" xmlns:svgjs="http://svgjs.dev/svgjs" width="1440" height="720" preserveAspectRatio="none" viewBox="0 0 1440 720">
    <g mask="url(&quot;#SvgjsMask1157&quot;)" fill="none">
        <rect width="1440" height="720" x="0" y="0" fill="rgba(0, 122, 39, 1)"></rect>
        <path d="M1306.14-17.42C1116.93 64.62 1110.17 635.19 832.85 658.23 555.53 681.27 596.21 568.23 359.57 568.23 122.92 568.23 6.72 657.83-113.72 658.23" stroke="rgba(0, 179, 57, 1)" stroke-width="2"></path>
        <path d="M755.68-118.04C624.36-63.71 721.07 313.67 423.03 342.92 124.99 372.17-68.49 542.32-242.27 544.52" stroke="rgba(0, 179, 57, 1)" stroke-width="2"></path>
        <path d="M736.02-16.98C622 18.74 712.89 310.72 425.91 346.68 138.93 382.64-19.63 661.11-194.31 670.68" stroke="rgba(0, 179, 57, 1)" stroke-width="2"></path>
        <path d="M1154.21-130.77C959.32-117.74 846.39 240.38 474.22 254.01 102.04 267.64-26.88 474.38-205.78 477.21" stroke="rgba(0, 179, 57, 1)" stroke-width="2"></path>
        <path d="M885.79-123.84C671.36-51.69 618.38 569.7 312.68 576.55 6.99 583.4-101.8 309.85-260.42 302.95" stroke="rgba(0, 179, 57, 1)" stroke-width="2"></path>
    </g>
    <defs>
        <mask id="SvgjsMask1157">
            <rect width="1440" height="720" fill="#ffffff"></rect>
        </mask>
    </defs>
</svg>