<svg xmlns="http://www.w3.org/2000/svg" version="1.1" xmlns:xlink="http://www.w3.org/1999/xlink" xmlns:svgjs="http://svgjs.dev/svgjs" width="1440" height="720" preserveAspectRatio="none" viewBox="0 0 1440 720">
    <g mask="url(&quot;#SvgjsMask1013&quot;)" fill="none">
        <rect width="1440" height="720" x="0" y="0" fill="rgba(63, 113, 188, 1)"></rect>
        <path d="M578.8-78.88C444.37-60.94 411.43 218.04 147 249.48-117.43 280.92-154.75 531.02-284.8 544.68" stroke="rgba(58, 103, 172, 1)" stroke-width="2"></path>
        <path d="M920.28-99.37C803.55-84.23 855.9 170.03 543.73 183.3 231.57 196.57-10.85 431.99-209.36 435.3" stroke="rgba(58, 103, 172, 1)" stroke-width="2"></path>
        <path d="M770.1-117.98C636.52 10.19 732.08 556.99 501.59 572.13 271.11 587.27 111.29 339.76-35.42 334.53" stroke="rgba(58, 103, 172, 1)" stroke-width="2"></path>
        <path d="M1266.73-5C1035.48 50.13 944.84 667.07 597.46 670.54 250.08 674.01 111.66 375.05-71.81 368.14" stroke="rgba(58, 103, 172, 1)" stroke-width="2"></path>
        <path d="M670.42-38.74C548.48 26.01 611.97 427.53 382.07 432.28 152.17 437.03-45.12 275.31-194.63 273.88" stroke="rgba(58, 103, 172, 1)" stroke-width="2"></path>
    </g>
    <defs>
        <mask id="SvgjsMask1013">
            <rect width="1440" height="720" fill="#ffffff"></rect>
        </mask>
    </defs>
</svg>